<svg xmlns="http://www.w3.org/2000/svg" width="408.595" height="59.316" viewBox="0 0 408.595 59.316">
  <g id="Group_37" data-name="Group 37" transform="translate(5356.674 1869)">
    <g id="Group_36" data-name="Group 36" transform="translate(0 0.253)">
      <path id="Path_37" data-name="Path 37" d="M28.8,88.977a11.781,11.781,0,0,0-1.7-4.769,2.92,2.92,0,0,0-.688-.78,3.207,3.207,0,0,0-.94-.459,5.687,5.687,0,0,0-1.4-.229q-.825-.045-2.155-.046H17.06v21.462q0,2.432.092,3.806a4.984,4.984,0,0,0,.481,2.064,1.663,1.663,0,0,0,1.147.849,10.877,10.877,0,0,0,2.132.16h1.513v1.009H7.246v-1.009H8.805a11.26,11.26,0,0,0,2.155-.16,1.673,1.673,0,0,0,1.17-.849,5,5,0,0,0,.481-2.064q.093-1.375.093-3.806V82.694H6.374a5.62,5.62,0,0,0-2.545.482A3.614,3.614,0,0,0,2.293,84.8a14.867,14.867,0,0,0-1.284,4.173H0l.138-7.292H29.579l.184,7.292Z" transform="translate(-5287 -1936.388)" fill="#4a4a4a"/>
      <path id="Path_38" data-name="Path 38" d="M52.584,115v-.634h.663a6.821,6.821,0,0,0,1.339-.1,1.046,1.046,0,0,0,.721-.533,3.128,3.128,0,0,0,.3-1.3q.058-.865.059-2.392v-4.61H45.7v4.61q0,1.527.058,2.392a3.126,3.126,0,0,0,.3,1.3,1.042,1.042,0,0,0,.72.533,6.816,6.816,0,0,0,1.339.1h.49V115H40.021v-.634h.49a7.076,7.076,0,0,0,1.355-.1,1.01,1.01,0,0,0,.72-.533,3.347,3.347,0,0,0,.288-1.3q.057-.865.057-2.392V99.14c0-.394-.009-.715-.029-.965a2.314,2.314,0,0,0-.1-.577,2.511,2.511,0,0,0-.187-.4,1.051,1.051,0,0,0-.648-.518,7.173,7.173,0,0,0-1.6-.116h-.345v-.634h8.586v.634h-.345q-.6,0-.979.029a3.086,3.086,0,0,0-.62.1.98.98,0,0,0-.374.187,1.26,1.26,0,0,0-.246.317,2.291,2.291,0,0,0-.187.418,2.438,2.438,0,0,0-.1.576q-.03.36-.044.951t-.014,1.541v3.775h9.97v-3.775q0-.951-.015-1.541c-.01-.394-.029-.715-.057-.965a3.835,3.835,0,0,0-.1-.577,1.857,1.857,0,0,0-.173-.4,1.129,1.129,0,0,0-.259-.317,1.156,1.156,0,0,0-.389-.187,3.105,3.105,0,0,0-.62-.1c-.25-.019-.566-.029-.951-.029h-.518v-.634h8.673v.634h-.288c-.383,0-.706.01-.965.029a2.883,2.883,0,0,0-.62.1,1.158,1.158,0,0,0-.375.187,1.116,1.116,0,0,0-.259.317,1.768,1.768,0,0,0-.173.418,4.46,4.46,0,0,0-.1.576q-.044.36-.058.951t-.014,1.541v9.365q0,1.527.058,2.392a3.114,3.114,0,0,0,.3,1.3,1.043,1.043,0,0,0,.72.533,6.816,6.816,0,0,0,1.339.1h.433V115Z" transform="translate(-5295.311 -1939.345)" fill="#4a4a4a"/>
      <path id="Path_39" data-name="Path 39" d="M85.012,115H69.222v-.634H69.6a7.3,7.3,0,0,0,1.368-.1,1.06,1.06,0,0,0,.75-.533,3.152,3.152,0,0,0,.3-1.3q.056-.865.057-2.392v-9.365q0-1.469-.057-2.29a3.172,3.172,0,0,0-.274-1.225.961.961,0,0,0-.663-.5,5.989,5.989,0,0,0-1.253-.1H69.6v-.634H83.254l.432,4.754h-.662a12.064,12.064,0,0,0-.635-2.031,3.6,3.6,0,0,0-.806-1.167,3.069,3.069,0,0,0-1.225-.706,6.03,6.03,0,0,0-1.743-.216h-3.8v8.011h2.017a8.9,8.9,0,0,0,1.5-.1,1.731,1.731,0,0,0,.88-.374,1.392,1.392,0,0,0,.4-.792,7.348,7.348,0,0,0,.1-1.355v-.23h.663v6.541H79.71V108a8.049,8.049,0,0,0-.1-1.412,1.493,1.493,0,0,0-.4-.835,1.631,1.631,0,0,0-.85-.389,8.256,8.256,0,0,0-1.441-.1h-2.1v4.495q0,1.038.029,1.744c.019.471.048.864.086,1.181a3.1,3.1,0,0,0,.159.735,1.525,1.525,0,0,0,.244.432,1.562,1.562,0,0,0,.735.4,7.021,7.021,0,0,0,1.541.115h1.413a6.964,6.964,0,0,0,2.218-.288,3.9,3.9,0,0,0,1.5-.951,8.329,8.329,0,0,0,2.017-4.062h.662Z" transform="translate(-5301.374 -1939.345)" fill="#4a4a4a"/>
      <path id="Path_40" data-name="Path 40" d="M126.281,103.967a8.1,8.1,0,0,1-.71,3.394,8.252,8.252,0,0,1-1.973,2.706,8.769,8.769,0,0,1-3,1.765,11.44,11.44,0,0,1-3.852.619,10.528,10.528,0,0,1-8.3-3.806,5.189,5.189,0,0,0-.641,1.261,15.9,15.9,0,0,0-.459,1.673h-1.147v-9.768h1.147a20.081,20.081,0,0,0,1.238,4.219,9.321,9.321,0,0,0,1.926,2.844,7.737,7.737,0,0,0,5.871,2.476,7.549,7.549,0,0,0,2.683-.459,6.863,6.863,0,0,0,2.109-1.238,5.591,5.591,0,0,0,1.4-1.857,5.518,5.518,0,0,0,.5-2.362,5.328,5.328,0,0,0-1.422-3.715,13.377,13.377,0,0,0-4.723-2.936l-2.063-.871a24.427,24.427,0,0,1-4.448-2.27,9.9,9.9,0,0,1-2.477-2.362,8.384,8.384,0,0,1-1.078-2.27,8.256,8.256,0,0,1-.39-2.453,7.528,7.528,0,0,1,.6-3.027,7.238,7.238,0,0,1,1.651-2.385,7.6,7.6,0,0,1,2.523-1.582,8.6,8.6,0,0,1,3.164-.574,9.218,9.218,0,0,1,3.852.734,10.8,10.8,0,0,1,3.256,2.476,5.587,5.587,0,0,0,.8-1.284,5.086,5.086,0,0,0,.344-1.376h1.009v7.934h-1.009a10.778,10.778,0,0,0-3-5.457,7.155,7.155,0,0,0-5.022-1.972,5.463,5.463,0,0,0-3.806,1.284,4.461,4.461,0,0,0-1.421,3.486,4.382,4.382,0,0,0,.712,2.338,7.247,7.247,0,0,0,1.994,2.064c.275.183.551.36.825.527s.582.344.918.528.726.375,1.17.573.986.436,1.628.711q1.33.6,2.178.986t1.422.665q.572.276.986.5t.963.55a8.313,8.313,0,0,1,4.081,7.7" transform="translate(-5309.052 -1936.244)" fill="#4a4a4a"/>
      <path id="Path_41" data-name="Path 41" d="M147.956,115v-.634h.663a6.821,6.821,0,0,0,1.339-.1,1.047,1.047,0,0,0,.721-.533,3.128,3.128,0,0,0,.3-1.3q.058-.865.059-2.392v-4.61h-9.97v4.61q0,1.527.058,2.392a3.126,3.126,0,0,0,.3,1.3,1.042,1.042,0,0,0,.72.533,6.815,6.815,0,0,0,1.339.1h.49V115h-8.586v-.634h.49a7.076,7.076,0,0,0,1.355-.1,1.01,1.01,0,0,0,.72-.533,3.347,3.347,0,0,0,.288-1.3q.057-.865.057-2.392V99.14c0-.394-.009-.715-.029-.965a2.315,2.315,0,0,0-.1-.577,2.513,2.513,0,0,0-.187-.4,1.051,1.051,0,0,0-.648-.518,7.173,7.173,0,0,0-1.6-.116h-.345v-.634h8.586v.634h-.345q-.6,0-.979.029a3.087,3.087,0,0,0-.62.1.98.98,0,0,0-.374.187,1.26,1.26,0,0,0-.246.317,2.289,2.289,0,0,0-.187.418,2.437,2.437,0,0,0-.1.576q-.03.36-.044.951t-.014,1.541v3.775h9.97v-3.775q0-.951-.015-1.541c-.01-.394-.029-.715-.057-.965a3.834,3.834,0,0,0-.1-.577,1.857,1.857,0,0,0-.173-.4,1.129,1.129,0,0,0-.259-.317,1.156,1.156,0,0,0-.389-.187,3.105,3.105,0,0,0-.62-.1c-.25-.019-.566-.029-.951-.029h-.518v-.634h8.673v.634h-.288c-.384,0-.706.01-.965.029a2.883,2.883,0,0,0-.62.1,1.159,1.159,0,0,0-.375.187,1.116,1.116,0,0,0-.259.317,1.768,1.768,0,0,0-.173.418,4.455,4.455,0,0,0-.1.576q-.044.36-.058.951t-.014,1.541v9.365q0,1.527.058,2.392a3.114,3.114,0,0,0,.3,1.3,1.043,1.043,0,0,0,.72.533,6.816,6.816,0,0,0,1.339.1h.433V115Z" transform="translate(-5315.114 -1939.345)" fill="#4a4a4a"/>
      <path id="Path_42" data-name="Path 42" d="M186.241,105.806a9.117,9.117,0,0,1-.778,3.76,8.969,8.969,0,0,1-2.146,3,10.128,10.128,0,0,1-3.242,1.975,11.242,11.242,0,0,1-4.063.72,12.34,12.34,0,0,1-4.307-.72,9.642,9.642,0,0,1-3.329-2.032,9.084,9.084,0,0,1-2.146-3.155,10.685,10.685,0,0,1-.763-4.121,9.945,9.945,0,0,1,.763-3.947,9,9,0,0,1,2.133-3.07,9.813,9.813,0,0,1,3.27-2,11.722,11.722,0,0,1,4.178-.72,12.535,12.535,0,0,1,4.062.677,9.591,9.591,0,0,1,3.343,1.888q3.026,2.679,3.025,7.751m-3.227-.231q0-4.61-1.83-7a7.181,7.181,0,0,0-10.661-.044q-1.83,2.35-1.83,6.815a16.389,16.389,0,0,0,.345,3.414,10.632,10.632,0,0,0,.921,2.723,5.6,5.6,0,0,0,1.528,1.757,6.763,6.763,0,0,0,2.032.994,8.8,8.8,0,0,0,2.521.331,6.132,6.132,0,0,0,5.143-2.363,10.6,10.6,0,0,0,1.83-6.627" transform="translate(-5321.359 -1939.254)" fill="#4a4a4a"/>
      <path id="Path_43" data-name="Path 43" d="M209.6,100.773a5.387,5.387,0,0,1-.836,3.012,4.152,4.152,0,0,1-2.3,1.742q-.431.115-.835.2c-.269.058-.562.105-.88.144s-.667.063-1.051.072-.836.014-1.354.014h-2.1v4.034q0,1.527.057,2.392a3.138,3.138,0,0,0,.3,1.3,1.047,1.047,0,0,0,.72.533,6.83,6.83,0,0,0,1.34.1h.634v.634h-8.73v-.634h.49a7.061,7.061,0,0,0,1.354-.1,1.054,1.054,0,0,0,.735-.533,3.14,3.14,0,0,0,.3-1.3q.057-.865.058-2.392v-9.365q0-.951-.014-1.541t-.058-.965a3.854,3.854,0,0,0-.1-.577,1.862,1.862,0,0,0-.174-.4,1.055,1.055,0,0,0-.648-.519,7.234,7.234,0,0,0-1.6-.115h-.345v-.634l2.391-.086q.864-.029,1.5-.058c.422-.018.8-.033,1.138-.043s.649-.014.937-.014h.893q1.325,0,2.32.086a13.5,13.5,0,0,1,1.772.259,6.174,6.174,0,0,1,1.369.461,5.471,5.471,0,0,1,1.109.72,4.332,4.332,0,0,1,1.224,1.555,4.872,4.872,0,0,1,.389,2.017m-2.967.058a5.352,5.352,0,0,0-.519-2.421,3.212,3.212,0,0,0-1.441-1.5,4.314,4.314,0,0,0-1.267-.432,11.373,11.373,0,0,0-1.844-.116h-.418c-.106,0-.206.006-.3.014l-.273.029a3.148,3.148,0,0,1-.331.014v8.846h1.383q.807,0,1.383-.058a6.062,6.062,0,0,0,1.037-.187,3.073,3.073,0,0,0,.807-.346,3.2,3.2,0,0,0,.662-.561,4.576,4.576,0,0,0,1.124-3.285" transform="translate(-5327.4 -1939.292)" fill="#4a4a4a"/>
      <path id="Path_44" data-name="Path 44" d="M230.072,100.773a5.387,5.387,0,0,1-.836,3.012,4.152,4.152,0,0,1-2.3,1.742q-.431.115-.835.2c-.269.058-.562.105-.88.144s-.667.063-1.051.072-.836.014-1.354.014h-2.1v4.034q0,1.527.057,2.392a3.139,3.139,0,0,0,.3,1.3,1.047,1.047,0,0,0,.72.533,6.83,6.83,0,0,0,1.34.1h.634v.634h-8.73v-.634h.49a7.06,7.06,0,0,0,1.354-.1,1.054,1.054,0,0,0,.735-.533,3.14,3.14,0,0,0,.3-1.3q.057-.865.058-2.392v-9.365q0-.951-.014-1.541t-.058-.965a3.853,3.853,0,0,0-.1-.577,1.861,1.861,0,0,0-.174-.4,1.055,1.055,0,0,0-.648-.519,7.234,7.234,0,0,0-1.6-.115h-.345v-.634l2.391-.086q.864-.029,1.5-.058c.422-.018.8-.033,1.138-.043s.649-.014.937-.014h.893q1.325,0,2.32.086a13.5,13.5,0,0,1,1.772.259,6.174,6.174,0,0,1,1.369.461,5.471,5.471,0,0,1,1.109.72,4.332,4.332,0,0,1,1.224,1.555,4.872,4.872,0,0,1,.389,2.017m-2.967.058a5.353,5.353,0,0,0-.519-2.421,3.212,3.212,0,0,0-1.441-1.5,4.314,4.314,0,0,0-1.267-.432,11.373,11.373,0,0,0-1.844-.116h-.418c-.106,0-.206.006-.3.014l-.273.029a3.148,3.148,0,0,1-.331.014v8.846h1.383q.807,0,1.383-.058a6.062,6.062,0,0,0,1.037-.187,3.073,3.073,0,0,0,.807-.346,3.2,3.2,0,0,0,.662-.561,4.576,4.576,0,0,0,1.124-3.285" transform="translate(-5331.651 -1939.292)" fill="#4a4a4a"/>
      <path id="Path_45" data-name="Path 45" d="M251.258,115h-15.79v-.634h.375a7.3,7.3,0,0,0,1.368-.1,1.06,1.06,0,0,0,.75-.533,3.151,3.151,0,0,0,.3-1.3q.056-.865.057-2.392v-9.365q0-1.469-.057-2.29a3.172,3.172,0,0,0-.274-1.225.961.961,0,0,0-.663-.5,5.984,5.984,0,0,0-1.253-.1h-.231v-.634H249.5l.432,4.754h-.662a12.063,12.063,0,0,0-.635-2.031,3.6,3.6,0,0,0-.806-1.167,3.069,3.069,0,0,0-1.225-.706,6.029,6.029,0,0,0-1.743-.216h-3.8v8.011h2.017a8.9,8.9,0,0,0,1.5-.1,1.731,1.731,0,0,0,.88-.374,1.392,1.392,0,0,0,.4-.792,7.349,7.349,0,0,0,.1-1.355v-.23h.663v6.541h-.663V108a8.05,8.05,0,0,0-.1-1.412,1.493,1.493,0,0,0-.4-.835,1.631,1.631,0,0,0-.85-.389,8.255,8.255,0,0,0-1.441-.1h-2.1v4.495q0,1.038.029,1.744c.019.471.048.864.086,1.181a3.1,3.1,0,0,0,.159.735,1.525,1.525,0,0,0,.244.432,1.562,1.562,0,0,0,.735.4,7.021,7.021,0,0,0,1.541.115h1.413a6.964,6.964,0,0,0,2.218-.288,3.9,3.9,0,0,0,1.5-.951A8.329,8.329,0,0,0,251,109.067h.662Z" transform="translate(-5335.895 -1939.345)" fill="#4a4a4a"/>
      <path id="Path_46" data-name="Path 46" d="M273.041,114.926a4.889,4.889,0,0,1-.433-.317c-.115-.1-.231-.2-.345-.317s-.24-.25-.375-.4-.307-.355-.518-.605q-.492-.575-.864-1.066t-.692-.922q-.174-.231-.951-1.383-.807-1.153-1.657-2.219a15.753,15.753,0,0,0-1.341-1.528,1.913,1.913,0,0,0-1.354-.432h-.777v4.235q0,1.527.057,2.392a3.139,3.139,0,0,0,.3,1.3,1.047,1.047,0,0,0,.72.533,6.839,6.839,0,0,0,1.341.1h.922v.634h-9.134v-.634h.634a6.824,6.824,0,0,0,1.34-.1,1.048,1.048,0,0,0,.721-.533,3.151,3.151,0,0,0,.3-1.3q.056-.865.057-2.392V100.6q0-.95-.014-1.541c-.01-.393-.029-.715-.058-.965a3.845,3.845,0,0,0-.1-.577,1.856,1.856,0,0,0-.174-.4A1.05,1.05,0,0,0,260,96.6a7.169,7.169,0,0,0-1.6-.116h-.317v-.634l2.738-.143c.212-.019.494-.034.849-.044s.764-.024,1.225-.044c.5-.018.937-.033,1.311-.043s.688-.014.936-.014a16.581,16.581,0,0,1,4.02.4,6.815,6.815,0,0,1,2.636,1.268,4.012,4.012,0,0,1,1.615,3.256,4.185,4.185,0,0,1-1.441,3.271,6.908,6.908,0,0,1-4,1.541c.133.077.244.144.331.2a2.375,2.375,0,0,1,.259.2q.13.115.288.273l.417.418c.4.423.754.811,1.052,1.167s.639.783,1.023,1.282l.98,1.3a26.072,26.072,0,0,0,1.916,2.291,6.758,6.758,0,0,0,1.628,1.282,3.158,3.158,0,0,0,1.009.418,10.258,10.258,0,0,0,1.3.158v.634Zm-2.709-14.205a5.617,5.617,0,0,0-.475-2.435,2.89,2.89,0,0,0-1.4-1.426A5.239,5.239,0,0,0,267,96.442a13.95,13.95,0,0,0-2.06-.129H264.4c-.154,0-.375.01-.662.029v8.73h.316l1.3-.029a9.421,9.421,0,0,0,2.608-.418,3.1,3.1,0,0,0,1.57-1.023,4.671,4.671,0,0,0,.807-2.882" transform="translate(-5340.562 -1939.27)" fill="#4a4a4a"/>
      <path id="Path_47" data-name="Path 47" d="M298.237,109.927a5.086,5.086,0,0,1-.446,2.132,5.187,5.187,0,0,1-1.24,1.7,5.5,5.5,0,0,1-1.887,1.109,7.17,7.17,0,0,1-2.42.39,6.612,6.612,0,0,1-5.215-2.392,3.252,3.252,0,0,0-.4.792,10.127,10.127,0,0,0-.288,1.052h-.72v-6.138h.72a12.58,12.58,0,0,0,.778,2.65,5.853,5.853,0,0,0,1.21,1.787,4.86,4.86,0,0,0,3.688,1.555,4.744,4.744,0,0,0,1.685-.288,4.289,4.289,0,0,0,1.326-.778,3.511,3.511,0,0,0,.879-1.167,3.473,3.473,0,0,0,.316-1.483,3.348,3.348,0,0,0-.893-2.334,8.4,8.4,0,0,0-2.968-1.844l-1.3-.548a15.42,15.42,0,0,1-2.8-1.427,6.217,6.217,0,0,1-1.555-1.483,5.24,5.24,0,0,1-.677-1.426,5.186,5.186,0,0,1-.246-1.542,4.719,4.719,0,0,1,.375-1.9,4.538,4.538,0,0,1,1.037-1.5,4.789,4.789,0,0,1,1.585-.994,5.433,5.433,0,0,1,1.988-.36,5.79,5.79,0,0,1,2.421.461,6.809,6.809,0,0,1,2.046,1.555,3.484,3.484,0,0,0,.5-.807,3.18,3.18,0,0,0,.216-.864h.634v4.985h-.634a6.777,6.777,0,0,0-1.887-3.428,4.5,4.5,0,0,0-3.155-1.239,3.434,3.434,0,0,0-2.391.807,2.8,2.8,0,0,0-.894,2.19,2.757,2.757,0,0,0,.447,1.47,4.557,4.557,0,0,0,1.254,1.3c.173.116.345.226.519.332s.364.216.576.331.456.235.735.36.62.274,1.023.447q.835.374,1.369.62t.893.418c.24.116.446.221.62.317s.375.212.605.346a5.223,5.223,0,0,1,2.564,4.84" transform="translate(-5346.308 -1939.255)" fill="#4a4a4a"/>
      <path id="Path_48" data-name="Path 48" d="M344.564,111.121a8.989,8.989,0,0,0-1.421-3.21,13.073,13.073,0,0,1-4.609,3.44,14.627,14.627,0,0,1-5.847,1.1,15.571,15.571,0,0,1-5.916-1.1,13.589,13.589,0,0,1-4.654-3.1,14.309,14.309,0,0,1-3.051-4.747,16.045,16.045,0,0,1-1.1-6.008,19.843,19.843,0,0,1,1.078-6.7,15.7,15.7,0,0,1,3-5.2,13.463,13.463,0,0,1,4.632-3.394,14.273,14.273,0,0,1,5.916-1.215,15.634,15.634,0,0,1,3.737.413,13.505,13.505,0,0,1,3.326,1.33q.688.414,1.17.689a7.869,7.869,0,0,1,.872.573,5.819,5.819,0,0,1,.71.642q.321.345.735.849a10.643,10.643,0,0,0,1.146-3.944H345.3l.23,11.511h-.964q-.871-5.365-3.394-7.934a9.81,9.81,0,0,0-3.44-2.178,11.67,11.67,0,0,0-4.265-.8,8.689,8.689,0,0,0-7.681,4.012q-2.683,4.014-2.683,11.4a18.716,18.716,0,0,0,.779,5.549,13.305,13.305,0,0,0,2.179,4.311,9.787,9.787,0,0,0,3.371,2.774,9.589,9.589,0,0,0,4.356.986,10.144,10.144,0,0,0,2-.207,14.182,14.182,0,0,0,2-.55,10.685,10.685,0,0,0,1.788-.826,6.926,6.926,0,0,0,1.421-1.078,12.719,12.719,0,0,0,2.523-3.944,10.88,10.88,0,0,0,.436-1.078q.16-.481.274-.917c.077-.291.145-.6.207-.918a9.9,9.9,0,0,0,.138-1.124h.964v10.594Z" transform="translate(-5353.026 -1936.244)" fill="#4a4a4a"/>
      <path id="Path_49" data-name="Path 49" d="M374.217,115H357.994v-.634h.576a6.83,6.83,0,0,0,1.34-.1,1.047,1.047,0,0,0,.721-.533,3.128,3.128,0,0,0,.3-1.3q.057-.865.058-2.392v-9.365q0-.951-.014-1.541t-.044-.965a2.353,2.353,0,0,0-.1-.577,2.651,2.651,0,0,0-.187-.4,1.129,1.129,0,0,0-.26-.317,1.15,1.15,0,0,0-.375-.187,2.827,2.827,0,0,0-.6-.1c-.25-.019-.576-.029-.98-.029h-.432v-.634h9.163v.634h-.836q-.6,0-.979.029a3.077,3.077,0,0,0-.619.1.985.985,0,0,0-.375.187,1.279,1.279,0,0,0-.246.317,2.4,2.4,0,0,0-.187.418,2.482,2.482,0,0,0-.1.576c-.019.24-.034.557-.044.951s-.014.907-.014,1.541v11.425q0,.534.029.836a1.3,1.3,0,0,0,.1.446,2.875,2.875,0,0,0,.187.318,1.49,1.49,0,0,0,.836.518,7.239,7.239,0,0,0,1.7.144h1.47q.836,0,1.441-.058a4.978,4.978,0,0,0,1.051-.2,2.691,2.691,0,0,0,.778-.389,3.859,3.859,0,0,0,.648-.62,5.847,5.847,0,0,0,.894-1.5q.346-.836.749-2.046l.058-.173h.663Z" transform="translate(-5361.338 -1939.345)" fill="#4a4a4a"/>
      <path id="Path_50" data-name="Path 50" d="M398.555,97.339a2.968,2.968,0,0,0-.648,2.132V108.4a8.748,8.748,0,0,1-.4,2.838,5.191,5.191,0,0,1-1.239,2,8.268,8.268,0,0,1-6.022,2.1,10.353,10.353,0,0,1-4.005-.721,5.619,5.619,0,0,1-2.622-2.074,5.46,5.46,0,0,1-.75-1.685,9.2,9.2,0,0,1-.2-2.378l.029-1.873v-5.935q0-.951-.014-1.541c-.01-.394-.029-.715-.057-.965a3.836,3.836,0,0,0-.1-.577,1.853,1.853,0,0,0-.173-.4,1.051,1.051,0,0,0-.648-.518,7.172,7.172,0,0,0-1.6-.116h-.432v-.634h8.7v.634H388q-.606,0-.98.029a3.1,3.1,0,0,0-.62.1.98.98,0,0,0-.374.187,1.26,1.26,0,0,0-.246.317,2.283,2.283,0,0,0-.187.418,2.436,2.436,0,0,0-.1.576q-.03.36-.044.951t-.014,1.541v7.694a9.111,9.111,0,0,0,.447,3.2,3.829,3.829,0,0,0,1.483,1.845,6.158,6.158,0,0,0,3.545.979,7.93,7.93,0,0,0,2.118-.273,6.545,6.545,0,0,0,1.785-.778,5.375,5.375,0,0,0,1.341-1.2,4.274,4.274,0,0,0,.777-1.527,8.509,8.509,0,0,0,.259-2.133q0-.172.015-.59t.015-1.081v-6.483a11.742,11.742,0,0,0-.116-1.83,2.508,2.508,0,0,0-.433-1.124,1.693,1.693,0,0,0-.879-.591,6.648,6.648,0,0,0-1.483-.231v-.634h6.4v.634a3.289,3.289,0,0,0-2.146.778" transform="translate(-5365.838 -1939.345)" fill="#4a4a4a"/>
      <path id="Path_51" data-name="Path 51" d="M423.612,109.734a4.877,4.877,0,0,1-3.458,4.726q-.518.144-.951.245a7.966,7.966,0,0,1-.965.158q-.534.058-1.225.072t-1.7.014h-7.462v-.634h.72a6.878,6.878,0,0,0,1.339-.1,1.047,1.047,0,0,0,.721-.533,3.14,3.14,0,0,0,.3-1.3q.057-.864.058-2.391v-9.307q0-.951-.015-1.556t-.043-.979a2.627,2.627,0,0,0-.1-.591,1.639,1.639,0,0,0-.188-.389,1.11,1.11,0,0,0-.634-.532,6.209,6.209,0,0,0-1.585-.13h-.374v-.634l3.141-.086,2.074-.086q.4-.029.778-.029h.72a11.669,11.669,0,0,1,5.936,1.181,3.625,3.625,0,0,1,1.383,1.412,3.9,3.9,0,0,1,.49,1.9q0,3.717-5.388,4.494a8.81,8.81,0,0,1,4.783,1.556,4.241,4.241,0,0,1,1.643,3.516m-4-9.335a5.817,5.817,0,0,0-.259-1.873,2.91,2.91,0,0,0-.807-1.239,3.409,3.409,0,0,0-1.4-.72,10.063,10.063,0,0,0-2.319-.2H414.3c-.135,0-.326.01-.576.029V104.4a2.914,2.914,0,0,0,.345.029h.26a11.873,11.873,0,0,0,2.448-.216,4.168,4.168,0,0,0,1.643-.692,2.615,2.615,0,0,0,.907-1.239,5.62,5.62,0,0,0,.274-1.887m.951,9.278q0-3.544-2.709-4.264a10.364,10.364,0,0,0-1.383-.259,14.459,14.459,0,0,0-1.7-.086h-.475c-.124,0-.312.01-.562.029v4.264q0,.922.014,1.555t.029,1.081a6.166,6.166,0,0,0,.058.734,3.8,3.8,0,0,0,.1.49,1.286,1.286,0,0,0,.648.821,3.4,3.4,0,0,0,1.484.245q4.494,0,4.495-4.61" transform="translate(-5371.691 -1939.292)" fill="#4a4a4a"/>
    </g>
    <g id="Group_35" data-name="Group 35" transform="translate(-190.475 43)">
      <path id="Path_52" data-name="Path 52" d="M177.4,22.086l7.353-4.109h2.6s0-9.084,2.6-10.814,6.488-6.056,10.165-5.624,11.463-.217,12.977,4.758l1.622,3.244,1.514,6.921v.865s6.813.865,8.11,2.379,5.731,4.975,5.516,10.166-.757,5.515-2.379,7.461S217.733,48.8,217.733,48.8l-7.786,6.6s-7.57,5.84-11.679,2.055S185.723,47.932,183.776,44.9s-7.57-6.488-8.435-10.706.432-11.787,4.434-14.275,6.488-2.487,6.488-2.487" transform="translate(-5339.41 -1912.452)" fill="#ea5d11"/>
      <path id="Path_53" data-name="Path 53" d="M217.562,23.051l-1.189-.069v2.049c.355.041.739.088,1.065.135.516.075,2.417.621,2.892.772a11.332,11.332,0,0,1,7.995,10.724,11.107,11.107,0,0,1-3.047,7.634L212.2,58.023c-1.743,1.62-7.028,5.82-10.6,5.82h-.315c-3.461,0-8.751-4.2-10.447-5.77L177.714,44.3a11.119,11.119,0,0,1-3.051-7.64,11.444,11.444,0,0,1,9.423-11.094,10.808,10.808,0,0,1,2.26-.311V22.97l-1.212.1a13.791,13.791,0,0,0-12.723,13.6,13.509,13.509,0,0,0,3.7,9.289l13.178,13.827c.282.261,6.967,6.415,12.1,6.415h.316c5.027,0,11.714-6.153,12.046-6.465l13.131-13.782a13.5,13.5,0,0,0,3.7-9.283,13.737,13.737,0,0,0-13.016-13.61" transform="translate(-5338.609 -1918.876)" fill="#fff"/>
      <path id="Path_54" data-name="Path 54" d="M194.65,19.834V14c0-6.475,5.668-11.742,12.634-11.742S219.919,7.52,219.919,14v5.839c0,.1-.013.2-.015.294a15.3,15.3,0,0,1,2.385.7c.026-.331.055-.661.055-1V14c0-7.717-6.755-14-15.059-14s-15.059,6.278-15.059,14v5.839c0,.4.029.786.064,1.174a15.107,15.107,0,0,1,2.381-.783c0-.131-.021-.259-.021-.391" transform="translate(-5344.541 -1912)" fill="#ea5d11"/>
      <path id="Path_55" data-name="Path 55" d="M212.9,31.946V43.978h-4.483V31.937h-3.3V27.394c.2-.01.4-.031.612-.031,5.834,0,11.67-.072,17.5.022,4.667.076,8,2.389,10.047,6.564.094.191.16.4.248.617-.078-.011-.131,0-.147-.023a6.868,6.868,0,0,0-5.806-2.654c-4.671.043-9.343.013-14.015.016-.192,0-.384.023-.659.041" transform="translate(-5348.398 -1920.183)" fill="#fff"/>
      <path id="Path_56" data-name="Path 56" d="M205.092,55.83V51.338h.86c6.973,0,13.947-.045,20.919.023,2.63.026,4.91-.537,6.632-2.7-.072.193-.129.392-.218.576-2.016,4.161-5.312,6.509-9.949,6.6-5.9.116-11.8.029-17.7.027-.17,0-.341-.023-.549-.039" transform="translate(-5348.392 -1926.567)" fill="#fff"/>
      <path id="Path_57" data-name="Path 57" d="M204.468,10.7a6.623,6.623,0,0,0-2.559,4.074,7.838,7.838,0,0,0-.114,1.373q-.015,6.911-.009,13.823c0,1.073.152,1.223,1.21,1.225.673,0,1.346,0,2.054,0v4.586c-1.639-.117-3.3.3-4.865-.4a4.434,4.434,0,0,1-2.9-4.058,116,116,0,0,1,.112-11.705c.35-4.228,2.842-7.157,6.708-8.893a1.114,1.114,0,0,1,.187-.057,1.006,1.006,0,0,1,.179.034" transform="translate(-5346.026 -1915.193)" fill="#fff"/>
      <path id="Path_58" data-name="Path 58" d="M197.256,52.482c1.406,0,2.719,0,4.032,0,.148,0,.3.032.521.057v.792c0,3.245.025,6.49-.009,9.736a6.62,6.62,0,0,0,2.413,5.382,2.068,2.068,0,0,1,.179.188c.009.011,0,.034.011.135a10.687,10.687,0,0,1-3.894-2.527,11.02,11.02,0,0,1-3.255-8.006c0-1.882,0-3.764,0-5.757" transform="translate(-5346.046 -1927.71)" fill="#fff"/>
      <path id="Path_59" data-name="Path 59" d="M225.474,47.751h-4.521c0-.758.007-1.476,0-2.194-.011-.891-.207-1.089-1.083-1.1-.739-.006-1.478,0-2.253,0V39.817a30.588,30.588,0,0,1,4.5.387,4.55,4.55,0,0,1,3.358,4.449c.018,1.023,0,2.046,0,3.1" transform="translate(-5352.141 -1923.919)" fill="#fff"/>
      <path id="Path_60" data-name="Path 60" d="M180.593,34.577a10.574,10.574,0,0,1,10.588-7.113V31.9c-.247.011-.336.03-.569.031-1.183,0-2.37.054-3.55-.009a7.134,7.134,0,0,0-6.47,2.66" transform="translate(-5341.058 -1920.208)" fill="#fff"/>
      <path id="Path_61" data-name="Path 61" d="M221.2,60.283h4.413c1.013,3.643-3.095,9.875-7.15,10.8.334-.31.652-.572.931-.87a6.445,6.445,0,0,0,1.8-4.533c.009-1.775,0-3.55,0-5.4" transform="translate(-5352.396 -1930.045)" fill="#fff"/>
      <path id="Path_62" data-name="Path 62" d="M218.542,10.66c4.237,1.244,7.611,6.319,7.162,10.752h-4.446c-.01-.213-.029-.444-.029-.675,0-1.514-.007-3.028,0-4.542a6.764,6.764,0,0,0-2.686-5.536" transform="translate(-5352.418 -1915.191)" fill="#fff"/>
      <path id="Path_63" data-name="Path 63" d="M191.376,51.316v4.43c-3.785.549-9.219-2.239-10.67-7.156a1.916,1.916,0,0,0,.176.313,6.5,6.5,0,0,0,5.182,2.412c1.512.006,3.024,0,4.536,0h.776" transform="translate(-5341.092 -1926.545)" fill="#fff"/>
      <path id="Path_64" data-name="Path 64" d="M186.981,35.2c-2.679.854-4.373,2.594-4.42,5.456-.05,2.979,1.644,4.811,4.544,5.691-3.887.4-6.853-1.921-6.967-5.347-.121-3.615,2.628-5.97,6.843-5.8" transform="translate(-5340.921 -1922.535)" fill="#fff"/>
      <path id="Path_65" data-name="Path 65" d="M205.1,66.3c1.175,3.011,3,4.45,5.553,4.45,2.6,0,4.355-1.413,5.554-4.47a5.759,5.759,0,0,1-2.4,5.886,5.391,5.391,0,0,1-6.026.175A5.785,5.785,0,0,1,205.1,66.3" transform="translate(-5348.375 -1931.84)" fill="#fff"/>
      <path id="Path_66" data-name="Path 66" d="M216.239,17.225c-.836-2.789-2.533-4.486-5.372-4.583-2.957-.1-4.789,1.55-5.773,4.432-.242-2.41.339-4.345,2.2-5.722a5.29,5.29,0,0,1,6-.456c2.443,1.314,3.2,3.521,2.945,6.329" transform="translate(-5348.377 -1915.045)" fill="#fff"/>
      <path id="Path_67" data-name="Path 67" d="M242.5,38.516c-.686,0-1.36.011-2.033-.01a.547.547,0,0,1-.355-.219c-1.574-2.148-1.572-2.149-3.818-3.073,2.524-.535,5.658,1.108,6.206,3.3" transform="translate(-5357.733 -1922.51)" fill="#fff"/>
      <path id="Path_68" data-name="Path 68" d="M242.42,46.459c-.95,2.324-3.131,3.428-6.45,3.295.261-.1.4-.169.556-.215a5.511,5.511,0,0,0,3.307-2.62.783.783,0,0,1,.825-.467c.562.03,1.127.008,1.761.008" transform="translate(-5357.635 -1925.904)" fill="#fff"/>
      <path id="Path_69" data-name="Path 69" d="M193.771,29.988a.767.767,0,1,1-.767-.767.767.767,0,0,1,.767.767" transform="translate(-5344.544 -1920.747)" fill="#4a4a4a"/>
      <path id="Path_70" data-name="Path 70" d="M233.88,29.988a.767.767,0,1,1-.767-.767.767.767,0,0,1,.767.767" transform="translate(-5356.55 -1920.747)" fill="#4a4a4a"/>
      <path id="Path_71" data-name="Path 71" d="M195.179,17.632v-.172A12.177,12.177,0,0,1,207.342,5.3h.382a12.177,12.177,0,0,1,12.163,12.163v.172a12.155,12.155,0,0,1-.116,1.591h2.146a14.365,14.365,0,0,0,.094-1.591v-.172A14.3,14.3,0,0,0,207.723,3.173h-.382a14.3,14.3,0,0,0-14.287,14.286v.172a14.2,14.2,0,0,0,.095,1.591H195.3a12.158,12.158,0,0,1-.116-1.591" transform="translate(-5344.789 -1912.95)" fill="#fff"/>
    </g>
  </g>
</svg>
